# xmcd
#
# Track frame offsets:
#	150
#	14048
#	28578
#	41378
#	57007
#	71931
#	85944
#	98616
#	114312
#	129136
#	139907
#	156318
#	169067
#	184852
#
# Disc length: 2628 seconds
#
# Revision: 1
# Processed by: cddbd v1.5.2PL0 Copyright (c) Steve Scherf et al.
# Submitted via: audiograbber 1.83.01
#
DISCID=b70a420e
DTITLE=Trenkwalder - Unsere Hits and Holladaro  CD 1
DYEAR=1900
DGENRE=
TTITLE0=Hey do samma
TTITLE1=Die grianen Haar
TTITLE2=Holladaro
TTITLE3=Buwiwi Buwiwi
TTITLE4=Tiroler Herz
TTITLE5=Ja dos is unser Land
TTITLE6=Ab ins Kaunertal
TTITLE7=Holla Hallo die Räuber
TTITLE8=Hey, Hubsi, spiel uns einen
TTITLE9=Scheen Marie
TTITLE10=Wir habn die Power
TTITLE11=Va bene
TTITLE12=Zähl deine Freunde  (Party Mix)
TTITLE13=Buwiwi Buwiwi  (Party Mix)
EXTD=
EXTT0=
EXTT1=
EXTT2=
EXTT3=
EXTT4=
EXTT5=
EXTT6=
EXTT7=
EXTT8=
EXTT9=
EXTT10=
EXTT11=
EXTT12=
EXTT13=
PLAYORDER=
